# xmcd CD database file
#
# Track frame offsets:
#	150
#	19485
#	41658
#	57256
#	72224
#	87871
#	107522
#	120200
#	137984
#	154381
#	170582
#
# Disc length: 2603 seconds
#
# Submitted via: cddb-tool 0.4.7
#
#blues,classical,country,data,folk,jazz,newage,reggae,rock,soundtrack,misc
#CATEGORY=misc
DISCID=.VFmqIeZnNN_qgr_y382EPfDLYU-
DTITLE=Unknown Artist / Unknown Album
DYEAR=
DGENRE=
TTITLE0=Track 1
TTITLE1=Track 2
TTITLE2=Track 3
TTITLE3=Track 4
TTITLE4=Track 5
TTITLE5=Track 6
TTITLE6=Track 7
TTITLE7=Track 8
TTITLE8=Track 9
TTITLE9=Track 10
TTITLE10=Track 11
EXTD=
EXTT0=
EXTT1=
EXTT2=
EXTT3=
EXTT4=
EXTT5=
EXTT6=
EXTT7=
EXTT8=
EXTT9=
EXTT10=
PLAYORDER=
